#!OML:ASF H:\Terrain\Patient Classification 1\Terrain2\Thursday\justin.ASF
:FULLY-SPECIFIED
:DEGREES
3046
root 0.62898 17.5521 21.9062 1259.71 -17.23 -174.862
lowerback 5.48892 2.07363 3.14129
upperback 1.25511 2.85948 2.73366
thorax -1.76593 1.35701 0.856606
lowerneck -12.3414 -3.1375 -11.7153
upperneck 36.0848 -7.6689 7.14966
head 15.4467 -5.03682 3.52458
rclavicle 8.71174e-014 -3.97569e-016
rhumerus -31.7589 -13.5234 -77.5446
rradius 26.5041
rwrist -10.3356
rhand -22.4561 12.65
rfingers 7.12502
rthumb 3.96834 -17.2928
lclavicle 8.71174e-014 -3.97569e-016
lhumerus -34.1009 0.337927 86.5226
lradius 36.5647
lwrist 9.82289
lhand -22.184 25.6686
lfingers 7.12502
lthumb 4.23111 55.6064
rfemur -7.47745 -13.2466 27.1274
rtibia 33.2739
rfoot -22.9331 -3.19601
rtoes 15.0993
lfemur -8.5465 -2.83899 -10.1156
ltibia 35.1718
lfoot -17.2013 -14.0699
ltoes -5.77377
3047
root 0.640835 17.5527 21.9155 1259.76 -16.5349 -174.562
lowerback 5.46621 2.20294 3.54057
upperback 1.30118 3.04099 2.80455
thorax -1.68681 1.44221 0.697588
lowerneck -12.6636 -3.09738 -11.6596
upperneck 36.3585 -7.61328 7.07239
head 15.6444 -5.02294 3.48828
rclavicle -9.07452e-014 -1.23246e-014
rhumerus -31.4311 -13.6319 -77.5768
rradius 26.2978
rwrist -10.4242
rhand -22.0542 11.157
rfingers 7.12502
rthumb 4.3564 -18.7782
lclavicle -9.07452e-014 -1.23246e-014
lhumerus -33.8767 0.459308 86.7248
lradius 36.5531
lwrist 9.83852
lhand -22.4048 25.4715
lfingers 7.12502
lthumb 4.01784 55.4134
rfemur -7.56925 -12.7227 27.5421
rtibia 33.0908
rfoot -22.7672 -2.98823
rtoes 14.346
lfemur -8.64551 -3.12346 -9.71821
ltibia 35.3557
lfoot -17.2237 -14.184
ltoes -5.60314
3048
root 0.652606 17.5488 21.9253 1259.68 -15.74 -174.051
lowerback 5.58204 2.30117 3.99174
upperback 1.3076 3.18761 3.01626
thorax -1.72932 1.50402 0.65092
lowerneck -12.5862 -3.01079 -11.8525
upperneck 36.2575 -7.47239 7.20087
head 15.5718 -4.97503 3.60302
rclavicle -4.60683e-014 2.42517e-014
rhumerus -31.1636 -13.442 -77.6311
rradius 26.0886
rwrist -10.3128
rhand -22.4588 11.5571
rfingers 7.12502
rthumb 3.96577 -18.3857
lclavicle -4.60683e-014 2.42517e-014
lhumerus -33.8429 0.979962 86.7916
lradius 36.5168
lwrist 9.14756
lhand -21.8092 24.8257
lfingers 7.12502
lthumb 4.593 54.7559
rfemur -7.52895 -12.1403 28.1451
rtibia 32.8587
rfoot -22.5677 -2.75437
rtoes 14.4826
lfemur -8.68371 -3.13563 -9.0959
ltibia 35.5921
lfoot -17.2548 -14.205
ltoes -5.91933
3049
root 0.657742 17.5383 21.9342 1259.55 -14.9188 -173.571
lowerback 5.85129 2.37714 4.58435
upperback 1.23623 3.33212 3.10075
thorax -1.92078 1.5628 0.38677
lowerneck -12.3475 -2.88969 -11.7285
upperneck 36.1223 -7.32324 7.13182
head 15.4158 -4.91203 3.57764
rclavicle 1.56543e-014 -2.46493e-014
rhumerus -31.207 -13.3586 -77.7238
rradius 26.0301
rwrist -10.0199
rhand -22.6512 13.3312
rfingers 7.12502
rthumb 3.77996 -16.615
lclavicle 1.56543e-014 -2.46493e-014
lhumerus -33.9717 1.18746 86.9017
lradius 36.7238
lwrist 9.72884
lhand -22.4911 25.4827
lfingers 7.12502
lthumb 3.93456 55.4262
rfemur -7.36831 -11.6236 28.6467
rtibia 32.6251
rfoot -22.3158 -2.4429
rtoes 13.6525
lfemur -8.60412 -3.07835 -8.58823
ltibia 35.8026
lfoot -17.4544 -13.6494
ltoes -7.52928
3050
root 0.660873 17.5386 21.9416 1259.58 -14.2117 -173.389
lowerback 5.95526 2.37848 4.97406
upperback 1.24929 3.35661 3.07162
thorax -1.93963 1.56944 0.135427
lowerneck -12.4294 -2.7665 -11.3304
upperneck 36.1177 -7.08884 6.75746
head 15.3631 -4.80405 3.38421
rclavicle -3.45885e-014 -3.18055e-014
rhumerus -31.1104 -13.3402 -77.8403
rradius 25.9932
rwrist -9.90401
rhand -21.9591 13.7678
rfingers 7.12502
rthumb 4.44827 -16.1655
lclavicle -3.45885e-014 -3.18055e-014
lhumerus -33.8344 1.96084 86.6167
lradius 36.4518
lwrist 9.84901
lhand -22.1289 23.8841
lfingers 7.12502
lthumb 4.28432 53.8207
rfemur -7.31475 -11.267 28.807
rtibia 32.4211
rfoot -22.2141 -1.95426
rtoes 13.6894
lfemur -8.58579 -3.12083 -8.48007
ltibia 35.9497
lfoot -17.5916 -12.5968
ltoes -10.1014
3051
root 0.667244 17.5466 21.9461 1259.68 -13.642 -173.448
lowerback 5.84039 2.30849 4.97511
upperback 1.41843 3.23703 3.09454
thorax -1.70549 1.51269 0.175763
lowerneck -12.7753 -2.61561 -11.0527
upperneck 36.2093 -6.72261 6.33416
head 15.4105 -4.65565 3.21262
rclavicle -4.65653e-014 2.22639e-014
rhumerus -30.6706 -13.147 -77.9962
rradius 25.8623
rwrist -9.67214
rhand -21.6409 11.8535
rfingers 7.12502
rthumb 4.75554 -18.0731
lclavicle -4.65653e-014 2.22639e-014
lhumerus -33.5294 3.60065 85.9664
lradius 35.7309
lwrist 7.41041
lhand -19.7462 20.6266
lfingers 7.12502
lthumb 6.5848 50.5042
rfemur -7.32174 -11.0078 28.7341
rtibia 32.2507
rfoot -22.18 -1.51923
rtoes 15.6204
lfemur -8.56417 -3.23115 -8.65152
ltibia 36.0161
lfoot -17.4506 -11.6494
ltoes -10.7606
3052
root 0.677881 17.5534 21.9448 1259.68 -13.1445 -173.662
lowerback 5.80246 2.27857 4.70946
upperback 1.59385 3.16376 3.12238
thorax -1.52183 1.47978 0.362076
lowerneck -12.9276 -2.51376 -11.0192
upperneck 36.2046 -6.48217 6.1702
head 15.4055 -4.56476 3.17594
rclavicle 1.08338e-014 -1.11319e-014
rhumerus -30.3267 -13.1553 -78.0113
rradius 25.8086
rwrist -9.28756
rhand -21.5934 11.3728
rfingers 7.12502
rthumb 4.80135 -18.5528
lclavicle 1.08338e-014 -1.11319e-014
lhumerus -33.5541 2.71403 86.9625
lradius 36.6168
lwrist 9.62562
lhand -22.9436 25.4649
lfingers 7.12502
lthumb 3.49755 55.4159
rfemur -7.17545 -10.679 28.5296
rtibia 32.0956
rfoot -22.1296 -1.35778
rtoes 16.3235
lfemur -8.37699 -3.29974 -8.99545
ltibia 36.0445
lfoot -17.4443 -10.7898
ltoes -10.2032
3053
root 0.69016 17.5605 21.9435 1259.74 -12.6589 -173.88
lowerback 5.79453 2.29382 4.51463
upperback 1.66663 3.17039 3.05192
thorax -1.44923 1.48698 0.399115
lowerneck -12.9007 -2.47458 -11.0636
upperneck 36.1595 -6.46418 6.28608
head 15.3805 -4.5515 3.23588
rclavicle -5.96354e-015 -1.27222e-014
rhumerus -30.2137 -13.4044 -78.0173
rradius 25.8367
rwrist -9.02374
rhand -21.6228 12.8984
rfingers 7.12502
rthumb 4.77299 -17.0278
lclavicle -5.96354e-015 -1.27222e-014
lhumerus -33.4552 2.48649 87.2574
lradius 36.629
lwrist 9.88816
lhand -23.2788 26.46
lfingers 7.12502
lthumb 3.17389 56.4161
rfemur -7.07741 -10.2834 28.3433
rtibia 31.9405
rfoot -22.1022 -1.24587
rtoes 15.9553
lfemur -8.27016 -3.34235 -9.3451
ltibia 36.0714
lfoot -17.4568 -9.78753
ltoes -8.97632
3054
root 0.704407 17.5604 21.9455 1259.78 -12.2033 -173.75
lowerback 5.7921 2.26763 4.66293
upperback 1.67919 3.1396 3.04084
thorax -1.42658 1.4705 0.308021
lowerneck -12.9288 -2.39902 -10.9514
upperneck 36.3033 -6.4495 6.29677
head 15.4499 -4.54787 3.22158
rclavicle -6.31141e-015 -1.43125e-014
rhumerus -30.1363 -13.458 -78.1932
rradius 25.8326
rwrist -9.06764
rhand -21.7711 13.2502
rfingers 7.12502
rthumb 4.6298 -16.6793
lclavicle -6.31141e-015 -1.43125e-014
lhumerus -33.3474 2.95338 86.9524
lradius 35.9424
lwrist 8.54392
lhand -21.919 23.6569
lfingers 7.12502
lthumb 4.48695 53.5893
rfemur -7.0215 -9.90704 28.5526
rtibia 31.7588
rfoot -22.0123 -1.10667
rtoes 15.5659
lfemur -8.26501 -3.38684 -9.28996
ltibia 36.1179
lfoot -17.3722 -8.83673
ltoes -7.87291
3055
root 0.717687 17.5594 21.9442 1259.76 -11.8182 -173.606
lowerback 5.8737 2.15253 4.68556
upperback 1.72426 2.97934 3.19056
thorax -1.4363 1.38441 0.457772
lowerneck -13.1455 -2.25219 -10.8871
upperneck 36.5188 -6.16501 6.01644
head 15.5579 -4.46906 3.13585
rclavicle -3.6477e-014 -3.49861e-014
rhumerus -29.9148 -13.0232 -78.3068
rradius 25.8854
rwrist -9.32538
rhand -21.4893 12.5827
rfingers 7.12502
rthumb 4.9019 -17.3406
lclavicle -3.6477e-014 -3.49861e-014
lhumerus -33.4556 2.47474 87.5651
lradius 36.3158
lwrist 9.88382
lhand -23.4072 25.2759
lfingers 7.12502
lthumb 3.04985 55.2338
rfemur -6.88373 -9.72662 28.7598
rtibia 31.5502
rfoot -21.9554 -0.907421
rtoes 15.8039
lfemur -8.14207 -3.57289 -9.23905
ltibia 36.1732
lfoot -17.4088 -7.92194
ltoes -7.64902
